<?xml version="1.0" standalone="no"?><!DOCTYPE svg PUBLIC "-//W3C//DTD SVG 1.1//EN" "http://www.w3.org/Graphics/SVG/1.1/DTD/svg11.dtd"><svg t="1724423001370" class="icon" viewBox="0 0 1024 1024" version="1.1" xmlns="http://www.w3.org/2000/svg" p-id="1074" xmlns:xlink="http://www.w3.org/1999/xlink" width="200" height="200"><path d="M38.04 518.35a475.12 487.33 0 1 0 950.24 0 475.12 487.33 0 1 0-950.24 0Z" fill="#07AA74" p-id="1075"></path><path d="M513.16 18.75C258.74 18.75 52.5 224.99 52.5 479.41s206.25 460.66 460.66 460.66c254.42 0 460.66-206.25 460.66-460.66S767.58 18.75 513.16 18.75z m0 769.72c-170.69 0-309.06-138.37-309.06-309.06s138.37-309.06 309.06-309.06 309.06 138.37 309.06 309.06-138.37 309.06-309.06 309.06z" fill="#56D8B0" p-id="1076"></path><path d="M559.21 342.71l-0.44 1.33c-5.14 15.66-20.13 25.74-36.6 25.02-0.85-0.04-1.69-0.07-2.54-0.08-60.85-1.4-111.98 42.18-122.4 99.75 10.12 0.4 19.75 4.58 26.68 11.85 8.85 9.28 12.09 22.3 8.6 34.57l-21.17 74.3c-4.01 14.07-16.17 24.73-31.12 27.31-14.97 2.58-29.99-3.4-38.47-15.3l-44.84-62.93c-7.4-10.38-8.7-23.75-3.47-35.46 5.03-11.26 15.44-19.49 27.84-22.1 4.96-103.54 90.75-186.25 195.5-186.25 3.18 0 6.35 0.08 9.5 0.23 24.06 1.17 40.44 24.86 32.93 47.76zM467.12 616.11l0.44-1.33c5.14-15.66 20.13-25.74 36.6-25.02 0.85 0.04 1.69 0.07 2.54 0.08 60.85 1.4 111.98-42.18 122.4-99.75-10.12-0.4-19.75-4.58-26.68-11.85-8.85-9.28-12.09-22.3-8.6-34.57l21.17-74.3c4.01-14.07 16.17-24.73 31.12-27.31 14.97-2.58 29.99 3.4 38.47 15.3l44.84 62.93c7.4 10.38 8.7 23.75 3.47 35.46-5.03 11.26-15.44 19.49-27.84 22.1-4.96 103.54-90.75 186.25-195.5 186.25-3.18 0-6.35-0.08-9.5-0.23-24.06-1.17-40.45-24.86-32.93-47.76z" fill="#FBFEFF" p-id="1077"></path></svg>